<svg xmlns="http://www.w3.org/2000/svg" viewBox="0 0 64 64" role="img" aria-labelledby="title">
  <title id="title">BeanWorks Coffee</title>
  <rect width="64" height="64" rx="16" fill="#1f140f"/>
  <circle cx="32" cy="32" r="23" fill="#ead7bf"/>
  <path fill="#8f5d38" d="M32 13c10 6 15 13 15 23 0 8-6 14-15 14S17 44 17 36c0-10 5-17 15-23Z"/>
  <path fill="#f6eadc" d="M32 13c-5 7-7 14-5 21 2 6 8 10 17 10-2 4-6 6-12 6-9 0-15-6-15-14 0-10 5-17 15-23Z" opacity=".32"/>
  <path fill="none" stroke="#ead7bf" stroke-width="4.5" stroke-linecap="round" d="M33 20c-5 7-5 15 0 24"/>
  <path fill="none" stroke="#1f140f" stroke-width="3" stroke-linecap="round" opacity=".2" d="M21 53h22"/>
</svg>
